<!DOCTYPE svg PUBLIC "-//W3C//DTD SVG 1.1//EN" "https://www.w3.org/Graphics/SVG/1.1/DTD/svg11.dtd"><svg xmlns="http://www.w3.org/2000/svg" id="sfn-svg" class="sfn-workflow-graph" width="920" height="786">
    
    
<g transform="translate(12,19.61328125)"><g class="nodes"><g class="node-container" transform="translate(447.7734375,18.25)"><g class="node anchor"><circle class="shape" x="-15.86328125" y="-8.25" r="25.86328125"/><text class="label"><tspan xml:space="preserve" text-anchor="middle" alignment-baseline="central">Start</tspan></text></g></g><g class="node-container" transform="translate(447.7734375,731.85400390625)"><g class="node anchor"><circle class="shape" x="-12.17578125" y="-8.25" r="22.17578125"/><text class="label"><tspan xml:space="preserve" text-anchor="middle" alignment-baseline="central">End</tspan></text></g></g><g class="node-container" transform="translate(447.7734375,405.802001953125)"><g class="node state Parallel NotYetStarted Container" transform="translate(-447.7734375,-282.802001953125)"><rect class="shape" rx="113.12080078125" ry="113.12080078125" x="0" y="0" width="895.546875" height="565.60400390625"/><g class="branches" transform="translate(20,40)"><g class="branch" transform="translate(0,0)"><g class="nodes"><g class="node-container" transform="translate(97.53515625,18.25)"><g class="node state Task NotYetStarted"><rect class="shape" rx="5" ry="5" x="-97.53515625" y="-18.25" width="195.0703125" height="36.5"/><text class="label"><tspan xml:space="preserve" text-anchor="middle" alignment-baseline="central">publishMediaConvertStatus</tspan></text></g></g></g><g class="edges"/></g><g class="branch" transform="translate(215.0703125,0)"><g class="nodes"><g class="node-container" transform="translate(320.23828125,79.75)"><g class="node state Task NotYetStarted"><rect class="shape" rx="5" ry="5" x="-47.4921875" y="-18.25" width="94.984375" height="36.5"/><text class="label"><tspan xml:space="preserve" text-anchor="middle" alignment-baseline="central">CreateAsset</tspan></text></g></g><g class="node-container" transform="translate(320.23828125,314.302001953125)"><g class="node state Parallel NotYetStarted Container" transform="translate(-320.23828125,-191.302001953125)"><rect class="shape" rx="76.52080078125" ry="76.52080078125" x="0" y="0" width="640.4765625" height="382.60400390625"/><g class="branches" transform="translate(20,40)"><g class="branch" transform="translate(0,0)"><g class="nodes"><g class="node-container" transform="translate(98.69140625,18.2760009765625)"><g class="node state Task NotYetStarted"><rect class="shape" rx="5" ry="5" x="-98.69140625" y="-18.2760009765625" width="197.3828125" height="36.552001953125"/><text class="label"><tspan xml:space="preserve" text-anchor="middle" alignment-baseline="central">publishMediaPackageStatus</tspan></text></g></g></g><g class="edges"/></g><g class="branch" transform="translate(217.3828125,0)"><g class="nodes"><g class="node-container" transform="translate(195.296875,18.25)"><g class="node state Wait NotYetStarted"><rect class="shape" rx="5" ry="5" x="-71.28125" y="-18.25" width="142.5625" height="36.5"/><text class="label"><tspan xml:space="preserve" text-anchor="middle" alignment-baseline="central">waitForCreateAsset</tspan></text></g></g><g class="node-container" transform="translate(150.8203125,79.75)"><g class="node state Task NotYetStarted"><rect class="shape" rx="5" ry="5" x="-53.953125" y="-18.25" width="107.90625" height="36.5"/><text class="label"><tspan xml:space="preserve" text-anchor="middle" alignment-baseline="central">DescribeAsset</tspan></text></g></g><g class="node-container" transform="translate(195.296875,222.802001953125)"><g class="node state Map NotYetStarted Container" transform="translate(-187.796875,-99.802001953125)"><rect class="shape" rx="5" ry="5" x="-10" y="-10" width="373.59375" height="197.60400390625"/><rect class="shape" rx="5" ry="5" x="-5" y="-5" width="374.59375" height="198.60400390625"/><rect class="shape" rx="5" ry="5" x="0" y="0" width="375.59375" height="199.60400390625"/><g class="branches" transform="translate(20,20)"><g class="branch" transform="translate(0,0)"><g class="nodes"><g class="node-container" transform="translate(20.96484375,79.82800006866455)"><g class="node state Fail NotYetStarted"><rect class="shape" rx="5" ry="5" x="-20.96484375" y="-18.25" width="41.9296875" height="36.5"/><text class="label"><tspan xml:space="preserve" text-anchor="middle" alignment-baseline="central">Fail</tspan></text></g></g><g class="node-container" transform="translate(164.89453125,141.35400009155273)"><g class="node state Succeed NotYetStarted"><rect class="shape" rx="5" ry="5" x="-34.01171875" y="-18.25" width="68.0234375" height="36.5"/><text class="label"><tspan xml:space="preserve" text-anchor="middle" alignment-baseline="central">Success</tspan></text></g></g><g class="node-container" transform="translate(164.89453125,18.276000022888184)"><g class="node state Choice NotYetStarted"><rect class="shape" rx="5" ry="5" x="-77.68359375" y="-18.276000022888184" width="155.3671875" height="36.55200004577637"/><text class="label"><tspan xml:space="preserve" text-anchor="middle" alignment-baseline="central">checkStreamPlayable</tspan></text></g></g><g class="node-container" transform="translate(164.89453125,79.82800006866455)"><g class="node state Task NotYetStarted"><rect class="shape" rx="5" ry="5" x="-82.96484375" y="-18.276000022888184" width="165.9296875" height="36.55200004577637"/><text class="label"><tspan xml:space="preserve" text-anchor="middle" alignment-baseline="central">publishPlayableStream</tspan></text></g></g><g class="node-container" transform="translate(311.7265625,79.82800006866455)"><g class="node state Pass NotYetStarted"><rect class="shape" rx="5" ry="5" x="-23.8671875" y="-18.25" width="47.734375" height="36.5"/><text class="label"><tspan xml:space="preserve" text-anchor="middle" alignment-baseline="central">Pass</tspan></text></g></g></g><g class="edges"><g class="edge"><path class="path" marker-end="url(#arrowhead139)" d="M87.2109375,34.88682107416044L76.169921875,37.24768423609642C65.12890625,39.608547398032414,43.046875,44.33027372190438,32.005859375,48.77880355432174C20.96484375,53.22733338673909,20.96484375,57.40266672770182,20.96484375,59.49033339818318L20.96484375,61.57800006866455" style="fill: none;"/><defs><marker id="arrowhead139" viewBox="0 0 10 10" refX="9" refY="5" markerUnits="strokeWidth" markerWidth="8" markerHeight="6" orient="auto"><path d="M 0 0 L 10 5 L 0 10 z"/></marker></defs></g><g class="edge"><path class="path" marker-end="url(#arrowhead140)" d="M164.89453125,36.55200004577637L164.89453125,38.635333379109696C164.89453125,40.71866671244303,164.89453125,44.885333379109696,164.89453125,49.05200004577636C164.89453125,53.218666712443024,164.89453125,57.385333379109696,164.89453125,59.46866671244303L164.89453125,61.55200004577637" style="fill: none;"/><defs><marker id="arrowhead140" viewBox="0 0 10 10" refX="9" refY="5" markerUnits="strokeWidth" markerWidth="8" markerHeight="6" orient="auto"><path d="M 0 0 L 10 5 L 0 10 z"/></marker></defs></g><g class="edge"><path class="path" marker-end="url(#arrowhead141)" d="M242.578125,34.558484591649716L254.10286458333331,36.97407050067082C265.62760416666663,39.38965640969193,288.6770833333333,44.220828227734145,300.20182291666663,48.72408080723662C311.7265625,53.22733338673909,311.7265625,57.40266672770182,311.72656249999994,59.49033339818318L311.7265625,61.57800006866455" style="fill: none;"/><defs><marker id="arrowhead141" viewBox="0 0 10 10" refX="9" refY="5" markerUnits="strokeWidth" markerWidth="8" markerHeight="6" orient="auto"><path d="M 0 0 L 10 5 L 0 10 z"/></marker></defs></g><g class="edge"><path class="path" marker-end="url(#arrowhead142)" d="M164.89453125,98.10400009155273L164.89453125,100.18733342488605C164.89453125,102.27066675821939,164.89453125,106.43733342488606,164.89453125,110.60400009155272C164.89453125,114.77066675821939,164.89453125,118.93733342488606,164.89453125,121.02066675821939L164.89453125,123.10400009155273" style="fill: none;"/><defs><marker id="arrowhead142" viewBox="0 0 10 10" refX="9" refY="5" markerUnits="strokeWidth" markerWidth="8" markerHeight="6" orient="auto"><path d="M 0 0 L 10 5 L 0 10 z"/></marker></defs></g></g></g></g><path class="path" marker-end="url(#arrowhead143)" d="M187.796875,0L187.79687499999997,1.6666666666666665C187.796875,3.333333333333333,187.796875,6.666666666666666,187.31315104166666,8.333333333333332C186.82942708333331,10,185.86197916666666,10,185.37825520833334,11.666666666666664C184.89453125,13.333333333333332,184.89453125,16.666666666666664,184.89453125,18.333333333333332L184.89453125,20" style="fill: none;"/></g></g></g><g class="edges"><g class="edge"><path class="path" marker-end="url(#arrowhead144)" d="M168.90021595528455,36.5L165.88689871273712,38.58333333333333C162.8735814701897,40.666666666666664,156.84694698509486,44.83333333333333,153.83362974254743,49C150.8203125,53.166666666666664,150.8203125,57.33333333333333,150.8203125,59.416666666666664L150.8203125,61.5" style="fill: none;"/><defs><marker id="arrowhead144" viewBox="0 0 10 10" refX="9" refY="5" markerUnits="strokeWidth" markerWidth="8" markerHeight="6" orient="auto"><path d="M 0 0 L 10 5 L 0 10 z"/></marker></defs></g><g class="edge"><path class="path" marker-end="url(#arrowhead145)" d="M150.8203125,98L150.8203125,100.08333333333331C150.8203125,102.16666666666666,150.8203125,106.33333333333331,158.23307291666666,110.49999999999999C165.64583333333331,114.66666666666666,180.47135416666666,118.83333333333333,187.88411458333331,120.91666666666666L195.296875,123" style="fill: none;"/><defs><marker id="arrowhead145" viewBox="0 0 10 10" refX="9" refY="5" markerUnits="strokeWidth" markerWidth="8" markerHeight="6" orient="auto"><path d="M 0 0 L 10 5 L 0 10 z"/></marker></defs></g><g class="edge"><path class="path" marker-end="url(#arrowhead146)" d="M234.82288433459823,123L235.64797652883186,120.91666666666666C236.47306872306547,118.83333333333333,238.12325311153273,114.66666666666666,238.94834530576634,107.45833333333333C239.77343749999997,100.24999999999999,239.77343749999997,90,239.77343749999994,79.75C239.77343749999997,69.5,239.77343749999997,59.25,236.76012025745254,52.041666666666664C233.74680301490514,44.83333333333333,227.72016852981028,40.666666666666664,224.70685128726288,38.583333333333336L221.69353404471545,36.5" style="fill: none;"/><defs><marker id="arrowhead146" viewBox="0 0 10 10" refX="9" refY="5" markerUnits="strokeWidth" markerWidth="8" markerHeight="6" orient="auto"><path d="M 0 0 L 10 5 L 0 10 z"/></marker></defs></g></g></g></g><path class="path" marker-end="url(#arrowhead147)" d="M320.23828125,0L320.23828125,3.333333333333333C320.23828125,6.666666666666666,320.23828125,13.333333333333332,286.6471354166667,16.666666666666664C253.05598958333331,20,185.87369791666666,20,152.28255208333331,23.33333333333333C118.69140624999999,26.666666666666664,118.69140624999999,33.33333333333333,118.69140624999997,36.666666666666664L118.69140625,40" style="fill: none;"/><path class="path" marker-end="url(#arrowhead148)" d="M320.23828125,0L320.23828125,3.333333333333333C320.23828125,6.666666666666666,320.23828125,13.333333333333332,338.978515625,16.666666666666664C357.71875,20,395.19921875,20,413.939453125,23.33333333333333C432.6796875,26.666666666666664,432.6796875,33.33333333333333,432.6796875,36.666666666666664L432.6796875,40" style="fill: none;"/></g></g><g class="node-container" transform="translate(406.04296875,18.25)"><g class="node state Choice NotYetStarted"><rect class="shape" rx="5" ry="5" x="-92.2578125" y="-18.25" width="184.515625" height="36.5"/><text class="label"><tspan xml:space="preserve" text-anchor="middle" alignment-baseline="central">checkMediaConvertStatus</tspan></text></g></g><g class="node-container" transform="translate(491.84765625,79.75)"><g class="node state Fail NotYetStarted"><rect class="shape" rx="5" ry="5" x="-84.1171875" y="-18.25" width="168.234375" height="36.5"/><text class="label"><tspan xml:space="preserve" text-anchor="middle" alignment-baseline="central">failureOnMediaConvert</tspan></text></g></g></g><g class="edges"><g class="edge"><path class="path" marker-end="url(#arrowhead149)" d="M320.23828125,98L320.23828125,100.08333333333331C320.23828125,102.16666666666666,320.23828125,106.33333333333331,320.23828125,110.49999999999999C320.23828125,114.66666666666666,320.23828125,118.83333333333333,320.23828125,120.91666666666666L320.23828125,123" style="fill: none;"/><defs><marker id="arrowhead149" viewBox="0 0 10 10" refX="9" refY="5" markerUnits="strokeWidth" markerWidth="8" markerHeight="6" orient="auto"><path d="M 0 0 L 10 5 L 0 10 z"/></marker></defs></g><g class="edge"><path class="path" marker-end="url(#arrowhead150)" d="M355.1182355182927,36.5L349.3049098069106,38.58333333333333C343.4915840955284,40.666666666666664,331.8649326727642,44.83333333333333,326.0516069613821,49C320.23828125,53.166666666666664,320.23828125,57.33333333333333,320.23828125,59.416666666666664L320.23828125,61.5" style="fill: none;"/><defs><marker id="arrowhead150" viewBox="0 0 10 10" refX="9" refY="5" markerUnits="strokeWidth" markerWidth="8" markerHeight="6" orient="auto"><path d="M 0 0 L 10 5 L 0 10 z"/></marker></defs></g><g class="edge"><path class="path" marker-end="url(#arrowhead151)" d="M456.9677019817073,36.5L462.7810276930894,38.58333333333333C468.5943534044715,40.666666666666664,480.2210048272358,44.83333333333333,486.0343305386179,49C491.84765625,53.166666666666664,491.84765625,57.33333333333333,491.84765625,59.416666666666664L491.84765625,61.5" style="fill: none;"/><defs><marker id="arrowhead151" viewBox="0 0 10 10" refX="9" refY="5" markerUnits="strokeWidth" markerWidth="8" markerHeight="6" orient="auto"><path d="M 0 0 L 10 5 L 0 10 z"/></marker></defs></g></g></g></g><path class="path" marker-end="url(#arrowhead152)" d="M447.7734375,0L447.7734375,3.333333333333333C447.7734375,6.666666666666666,447.7734375,13.333333333333332,392.7337239583333,16.666666666666664C337.6940104166667,20,227.61458333333331,20,172.57486979166666,23.33333333333333C117.53515625,26.666666666666664,117.53515625,33.33333333333333,117.53515624999999,36.666666666666664L117.53515625,40" style="fill: none;"/><path class="path" marker-end="url(#arrowhead153)" d="M447.7734375,0L447.7734375,3.333333333333333C447.7734375,6.666666666666666,447.7734375,13.333333333333332,479.99674479166663,16.666666666666664C512.2200520833333,20,576.6666666666666,20,608.8899739583333,23.33333333333333C641.11328125,26.666666666666664,641.11328125,33.33333333333333,641.1132812499999,36.666666666666664L641.11328125,40" style="fill: none;"/></g></g><g class="node-container" transform="translate(447.7734375,79.75)"><g class="node state Task NotYetStarted"><rect class="shape" rx="5" ry="5" x="-85.01953125" y="-18.25" width="170.0390625" height="36.5"/><text class="label"><tspan xml:space="preserve" text-anchor="middle" alignment-baseline="central">createMediaConvertJob</tspan></text></g></g></g><g class="edges"><g class="edge"><path class="path" marker-end="url(#arrowhead154)" d="M447.7734375,688.60400390625L447.7734375,690.6873372395834C447.7734375,692.7706705729166,447.7734375,696.9373372395833,447.7734375,700.4497070312499C447.7734375,703.9620768229166,447.7734375,706.8201497395833,447.7734375,708.2491861979166L447.7734375,709.67822265625" style="fill: none;"/><defs><marker id="arrowhead154" viewBox="0 0 10 10" refX="9" refY="5" markerUnits="strokeWidth" markerWidth="8" markerHeight="6" orient="auto"><path d="M 0 0 L 10 5 L 0 10 z"/></marker></defs></g><g class="edge"><path class="path" marker-end="url(#arrowhead155)" d="M447.7734375,98L447.7734375,100.08333333333331C447.7734375,102.16666666666666,447.7734375,106.33333333333331,447.7734375,110.49999999999999C447.7734375,114.66666666666666,447.7734375,118.83333333333333,447.7734375,120.91666666666666L447.7734375,123" style="fill: none;"/><defs><marker id="arrowhead155" viewBox="0 0 10 10" refX="9" refY="5" markerUnits="strokeWidth" markerWidth="8" markerHeight="6" orient="auto"><path d="M 0 0 L 10 5 L 0 10 z"/></marker></defs></g><g class="edge"><path class="path" marker-end="url(#arrowhead156)" d="M447.7734375,44.11328125L447.7734375,44.92773437499999C447.7734375,45.7421875,447.7734375,47.37109375,447.7734375,50.26888020833333C447.7734375,53.166666666666664,447.7734375,57.33333333333333,447.7734375,59.416666666666664L447.7734375,61.5" style="fill: none;"/><defs><marker id="arrowhead156" viewBox="0 0 10 10" refX="9" refY="5" markerUnits="strokeWidth" markerWidth="8" markerHeight="6" orient="auto"><path d="M 0 0 L 10 5 L 0 10 z"/></marker></defs></g></g></g><style xmlns="http://www.w3.org/1999/xhtml">.node &gt; .shape {stroke: #555555;stroke-width: 0.6px;fill: #FFFFFF;} path {stroke: #555;background-color: #555;stroke-width: 1px;} .node.state.NotYetStarted &gt; .shape,.node.state.Container &gt; .shape {stroke-dasharray: 5 2;} .node.state.Failed &gt; .shape,rect.legend.Failed {fill: #DE322F;} .node.state.CaughtError &gt; .shape,rect.legend.CaughtError {fill: #FFA500;} .node.state.Succeeded &gt; .shape,rect.legend.Succeeded {fill: #2BD62E;} .node.state.InProgress &gt; .shape,rect.legend.InProgress {fill: #53c9ed;} .node.state.Cancelled &gt; .shape,rect.legend.Cancelled {fill: #dddddd;} .node.anchor &gt; .shape {fill: #FFDA75;} .node.state.hovered:not(.selected):not(.NotYetStarted) &gt; .shape,.node.selected &gt; .shape {stroke: #555555;stroke-width: 2px;} .node.state.Container.Failed &gt; .shape {fill: #EE9592;} .node.state.Container.CaughtError &gt; .shape {fill: #FFD27F;} .node.state.Container.Succeeded &gt; .shape {fill: #91EA9A;} .node.state.Container.InProgress &gt; .shape {fill :#A9E4F7;} .node.state.Container.Cancelled &gt; .shape {fill: #EEEEEE;} marker {fill: #555555;} .node.anchor,.node.state.NotYetStarted {cursor: default;} .node.state {cursor: pointer;} tspan .label {font-weight: normal;font-size: 12px;text-shadow: none;} </style></svg>